<svg xmlns="http://www.w3.org/2000/svg" viewBox="0 0 1200 630" role="img" aria-label="eeatly preview">
  <rect width="1200" height="630" fill="#f7f7f2"/>
  <circle cx="120" cy="80" r="260" fill="#f28f62" opacity="0.16"/>
  <circle cx="1080" cy="560" r="280" fill="#2f6f58" opacity="0.12"/>
  <rect x="650" y="92" width="430" height="446" rx="34" fill="#fffefd" stroke="#dfe4dc" stroke-width="4"/>
  <rect x="690" y="140" width="210" height="22" rx="11" fill="#66706a" opacity="0.45"/>
  <rect x="690" y="182" width="300" height="42" rx="14" fill="#1f2320"/>
  <rect x="690" y="264" width="160" height="110" rx="20" fill="#dbe9e4"/>
  <rect x="878" y="264" width="160" height="110" rx="20" fill="#f28f62" opacity="0.28"/>
  <rect x="690" y="410" width="310" height="34" rx="17" fill="#eceee7"/>
  <rect x="690" y="462" width="260" height="34" rx="17" fill="#eceee7"/>
  <g transform="translate(110 134)">
    <rect width="84" height="84" rx="20" fill="#2f6f58"/>
    <path d="M27 44c0-17 10-30 25-30s25 13 25 30v17c0 7-5 12-12 12H39c-7 0-12-5-12-12V44Z" fill="#f7f7f2" transform="scale(.72) translate(18 8)"/>
  </g>
  <text x="110" y="270" fill="#1f2320" font-family="Inter, Arial, sans-serif" font-size="78" font-weight="700">eeatly</text>
  <text x="110" y="344" fill="#1f2320" font-family="Inter, Arial, sans-serif" font-size="44" font-weight="600">Dinner decisions made easier.</text>
  <text x="110" y="418" fill="#66706a" font-family="Inter, Arial, sans-serif" font-size="30">Remember meals you love. Decide what to cook next.</text>
</svg>
